<svg width="67" height="50" viewBox="0 0 67 50" fill="none" xmlns="http://www.w3.org/2000/svg">
<circle cx="34.5" cy="25" r="25" fill="#68B738"/>
<g clip-path="url(#clip0_2403_507)">
<path d="M61.5501 12.9C62.1273 11.9815 62.8945 11.1973 63.8001 10.6C64.3001 10.25 64.6001 10.25 64.9001 10.9C65.3001 11.85 65.6501 12.85 65.3501 13.9C65.2955 14.0781 65.2852 14.2668 65.32 14.4497C65.3549 14.6327 65.4339 14.8044 65.5501 14.95C65.8501 15.35 66.1001 15.75 66.3501 16.1C66.6903 16.5319 66.911 17.0456 66.99 17.5897C67.069 18.1339 67.0035 18.6892 66.8001 19.2C66.6165 19.6959 66.5818 20.2346 66.7001 20.75C66.8 21.245 66.8 21.755 66.7001 22.25C66.6597 22.6207 66.5096 22.9709 66.2692 23.2559C66.0287 23.5409 65.7087 23.7478 65.3501 23.85C64.7105 23.9717 64.1397 24.3284 63.7501 24.85C63.7029 24.9268 63.6366 24.9901 63.5578 25.0339C63.479 25.0777 63.3902 25.1005 63.3001 25.1C62.7001 25.2 61.2001 23.85 61.2001 23.25V22.95C61.2501 21.15 61.1501 21 59.5001 20.25C59.1547 20.1282 58.8453 19.9219 58.6001 19.65C58.3001 19.25 57.9001 19.3 57.4501 19.45C57.0001 19.6 56.7501 19.9 56.8001 20.4C56.9509 21.6104 57.001 22.8313 56.9501 24.05C56.9534 24.1891 56.9876 24.3257 57.0501 24.45C58.6001 26.7 59.2001 29.35 59.9501 31.9C60.5501 33.85 61.6501 34.9 63.6501 35.05C63.9701 35.0755 64.2877 35.1256 64.6001 35.2C65.011 35.266 65.3927 35.4537 65.6957 35.739C65.9988 36.0242 66.2093 36.3938 66.3001 36.8C66.6501 37.85 66.4501 38.1 65.4001 38.1H62.1501C61.7293 38.1212 61.3168 37.9778 61.0001 37.7C60.494 37.2729 59.9192 36.9348 59.3001 36.7C58.6156 36.4473 58.0232 35.9943 57.6001 35.4C57.0144 34.5817 56.344 33.8275 55.6001 33.15C54.2001 31.7 52.7001 30.3 51.4001 28.8C50.4104 27.7779 49.8396 26.4221 49.8001 25C49.8001 24.55 49.7001 24.35 49.2001 24.55C49.0504 24.645 48.8774 24.6969 48.7001 24.7C47.3001 24.7 46.6001 25.55 46.1001 26.8C45.6501 27.85 45.0501 28.85 44.5001 29.9C44.1882 30.5572 44.0179 31.2727 44.0001 32C44.0001 33.2 44.3001 33.6 45.4001 34C46.1001 34.25 46.7501 34.5 47.1001 35.2C47.5001 36 47.4001 36.2 46.5501 36.25H43.1501C42.9541 36.2694 42.7569 36.2267 42.5865 36.1281C42.416 36.0294 42.2808 35.8796 42.2001 35.7L41.3001 34.2C41.0348 33.8086 40.8649 33.3605 40.8042 32.8916C40.7434 32.4227 40.7934 31.9461 40.9501 31.5C41.1665 30.6317 41.1836 29.7258 41.0001 28.85C40.874 28.24 40.8849 27.6097 41.0319 27.0045C41.1789 26.3993 41.4583 25.8342 41.8501 25.35C42.1501 25 42.1501 24.85 41.6501 24.75C39.6055 24.3157 37.6234 23.627 35.7501 22.7C35.7368 22.7 35.7241 22.6947 35.7147 22.6853C35.7053 22.676 35.7001 22.6632 35.7001 22.65C34.1001 22.05 33.8001 22.15 33.3501 23.8C32.9501 25.2 32.5501 26.6 32.2501 28.05C31.9001 29.65 32.3001 31.15 32.8001 32.65C33.0001 33.25 33.6001 33.2 34.0501 33.35C35.0501 33.65 35.9001 34.05 36.3001 35.1C36.6501 35.9 36.6001 36 35.7501 36C34.9001 36 34.0501 35.95 33.1501 36C32.3906 36.0137 31.6494 35.7667 31.0501 35.3C28.6501 33.7 27.9501 31.25 27.7501 28.6C27.6501 26.95 26.7501 25.65 25.7001 24.4C25.5001 24.15 25.3001 24.05 25.0001 24.25C23.9268 24.8418 22.8063 25.3435 21.6501 25.75C19.2372 26.602 17.1199 28.1292 15.5501 30.15C14.9639 30.8875 14.5843 31.7675 14.4501 32.7C14.3001 33.6 14.5501 34 15.4501 34.25C16.3501 34.5 16.8001 35 16.9001 35.95C16.9501 36.35 16.8001 36.55 16.4001 36.55H12.3501C12.2175 36.5406 12.0892 36.4993 11.976 36.4297C11.8629 36.36 11.7682 36.2641 11.7001 36.15C11.072 35.3724 10.7359 34.3994 10.7501 33.4C10.7238 31.6724 10.8746 29.9468 11.2001 28.25C11.2668 27.7418 11.4565 27.2576 11.7528 26.8394C12.049 26.4212 12.4429 26.0815 12.9001 25.85C15.8501 24.45 17.4001 21.8 18.8001 19.05C19.1001 18.5 18.8501 18.4 18.3501 18.45C16.9508 18.6442 15.6249 19.1952 14.5001 20.05C13.0272 21.1244 11.6397 22.3113 10.3501 23.6C8.97491 24.9968 7.15143 25.8643 5.20008 26.05C1.55008 26.25 -0.149918 24.2 8.17683e-05 20.9C0.033613 19.7748 0.457905 18.6964 1.20008 17.85C1.45809 17.5155 1.80995 17.2655 2.21072 17.1319C2.61148 16.9983 3.04297 16.9872 3.45008 17.1C4.20008 17.3 4.40008 17.7 4.10008 18.45C3.95008 18.75 3.75008 19 3.60008 19.3C3.38438 19.6064 3.21584 19.9435 3.10008 20.3C2.55008 21.8 3.30008 22.85 4.85008 23C6.50008 23.15 7.85008 22.45 9.10008 21.45C10.606 20.2441 11.9504 18.8493 13.1001 17.3C13.9597 16.1687 15.0421 15.2256 16.2805 14.529C17.5189 13.8325 18.8869 13.3971 20.3001 13.25C21.4501 13.1 22.4501 12.6 23.5501 12.3C25.6073 11.6728 27.7496 11.3692 29.9001 11.4C30.8961 11.4415 31.8884 11.2533 32.8001 10.85C35.2501 9.84997 37.8001 9.84997 40.3501 10.35C42.3501 10.75 44.3501 11.25 46.3001 11.75C47.4606 11.9662 48.6538 11.9321 49.8001 11.65C51.9944 11.0937 54.239 10.7587 56.5001 10.65C57.9813 10.5779 59.4577 10.8697 60.8001 11.5C61.8001 11.95 61.8001 11.95 61.5501 12.9Z" fill="black"/>
</g>
<defs>
<clipPath id="clip0_2403_507">
<rect width="67" height="28" fill="white" transform="translate(0 10)"/>
</clipPath>
</defs>
</svg>
